# xmcd
#
# Track frame offsets: 
#        150
#        13087
#        35357
#        52360
#        66227
#        87422
#        102305
#        114310
#        130430
#        148105
#        164977
#        182102
#        194782
#        214772
#        229215
#
# Disc length: 3276 seconds
#
# Revision: 0
# Processed by: cddbd v1.4PL0 Copyright (c) Steve Scherf et al.
# Submitted via: ExactAudioCopy v0.90b4
#
DISCID=f10cca0f
DTITLE=Stephen Barry Band - here on the highway
DYEAR=1994
DGENRE=Blues
TTITLE0=Home in your heart
TTITLE1=There was a time
TTITLE2=Voodoo music
TTITLE3=Bull doze blues
TTITLE4=More precious than silver
TTITLE5=Rockin' with hop
TTITLE6=Landlady
TTITLE7=Work for your money
TTITLE8=Natural ball
TTITLE9=Why did it happen to me
TTITLE10=Too lazy
TTITLE11=I don't have to worry
TTITLE12=Little boy blue
TTITLE13=Living in the white house
TTITLE14=Here on the highway
EXTD=
EXTT0=
EXTT1=
EXTT2=
EXTT3=
EXTT4=
EXTT5=
EXTT6=
EXTT7=
EXTT8=
EXTT9=
EXTT10=
EXTT11=
EXTT12=
EXTT13=
EXTT14=
PLAYORDER=
